# xmcd
#
# Track frame offsets:
#	150
#	5940
#	22922
#	36159
#	53824
#	69711
#	84292
#	101993
#	118840
#	137269
#	150844
#	167372
#
# Disc length: 2478 seconds
#
# Revision: 1
# Processed by: cddbd v1.5.2PL0 Copyright (c) Steve Scherf et al.
# Submitted via: audiograbber 1.82.01
#
DISCID=8e09ac0c
DTITLE=Stephen Simmons - A World Without
DYEAR=2016
DGENRE=Country
TTITLE0=Prelude
TTITLE1=West
TTITLE2=Puritan Cowboys
TTITLE3=A World Without
TTITLE4=Fairy Tales (The Flower's Burden)
TTITLE5=Every Time
TTITLE6=The Music Highway
TTITLE7=One Fast Move
TTITLE8=Silver Moon Saloon
TTITLE9=Dreamers And Kings
TTITLE10=Baby Brother's Got A Baby Now
TTITLE11=On Top Of A World
EXTD=
EXTT0=
EXTT1=
EXTT2=
EXTT3=
EXTT4=
EXTT5=
EXTT6=
EXTT7=
EXTT8=
EXTT9=
EXTT10=
EXTT11=
PLAYORDER=
